# Простой торус
# Вершины
v 0.500000 0.000000 0.000000
v 0.461940 0.191342 0.000000
v 0.353553 0.353553 0.000000
v 0.191342 0.461940 0.000000
v 0.000000 0.500000 0.000000
v -0.191342 0.461940 0.000000
v -0.353553 0.353553 0.000000
v -0.461940 0.191342 0.000000
v -0.500000 0.000000 0.000000
v -0.461940 -0.191342 0.000000
v -0.353553 -0.353553 0.000000
v -0.191342 -0.461940 0.000000
v 0.000000 -0.500000 0.000000
v 0.191342 -0.461940 0.000000
v 0.353553 -0.353553 0.000000
v 0.461940 -0.191342 0.000000
v 0.400000 0.000000 0.300000
v 0.369553 0.153074 0.300000
v 0.282843 0.282843 0.300000
v 0.153074 0.369553 0.300000
v 0.000000 0.400000 0.300000
v -0.153074 0.369553 0.300000
v -0.282843 0.282843 0.300000
v -0.369553 0.153074 0.300000
v -0.400000 0.000000 0.300000
v -0.369553 -0.153074 0.300000
v -0.282843 -0.282843 0.300000
v -0.153074 -0.369553 0.300000
v 0.000000 -0.400000 0.300000
v 0.153074 -0.369553 0.300000
v 0.282843 -0.282843 0.300000
v 0.369553 -0.153074 0.300000

# Нормали
vn 1.0000 0.0000 0.0000
vn 0.9239 0.3827 0.0000
vn 0.7071 0.7071 0.0000
vn 0.3827 0.9239 0.0000
vn 0.0000 1.0000 0.0000
vn -0.3827 0.9239 0.0000
vn -0.7071 0.7071 0.0000
vn -0.9239 0.3827 0.0000
vn -1.0000 0.0000 0.0000
vn -0.9239 -0.3827 0.0000
vn -0.7071 -0.7071 0.0000
vn -0.3827 -0.9239 0.0000
vn 0.0000 -1.0000 0.0000
vn 0.3827 -0.9239 0.0000
vn 0.7071 -0.7071 0.0000
vn 0.9239 -0.3827 0.0000
vn 0.8000 0.0000 0.6000
vn 0.7391 0.3061 0.6000
vn 0.5657 0.5657 0.6000
vn 0.3061 0.7391 0.6000
vn 0.0000 0.8000 0.6000
vn -0.3061 0.7391 0.6000
vn -0.5657 0.5657 0.6000
vn -0.7391 0.3061 0.6000
vn -0.8000 0.0000 0.6000
vn -0.7391 -0.3061 0.6000
vn -0.5657 -0.5657 0.6000
vn -0.3061 -0.7391 0.6000
vn 0.0000 -0.8000 0.6000
vn 0.3061 -0.7391 0.6000
vn 0.5657 -0.5657 0.6000
vn 0.7391 -0.3061 0.6000

# Текстурные координаты
vt 0.0 0.0
vt 0.0625 0.0
vt 0.125 0.0
vt 0.1875 0.0
vt 0.25 0.0
vt 0.3125 0.0
vt 0.375 0.0
vt 0.4375 0.0
vt 0.5 0.0
vt 0.5625 0.0
vt 0.625 0.0
vt 0.6875 0.0
vt 0.75 0.0
vt 0.8125 0.0
vt 0.875 0.0
vt 0.9375 0.0
vt 0.0 1.0
vt 0.0625 1.0
vt 0.125 1.0
vt 0.1875 1.0
vt 0.25 1.0
vt 0.3125 1.0
vt 0.375 1.0
vt 0.4375 1.0
vt 0.5 1.0
vt 0.5625 1.0
vt 0.625 1.0
vt 0.6875 1.0
vt 0.75 1.0
vt 0.8125 1.0
vt 0.875 1.0
vt 0.9375 1.0

# Грани
f 1/1/1 2/2/2 18/18/18 17/17/17
f 2/2/2 3/3/3 19/19/19 18/18/18
f 3/3/3 4/4/4 20/20/20 19/19/19
f 4/4/4 5/5/5 21/21/21 20/20/20
f 5/5/5 6/6/6 22/22/22 21/21/21
f 6/6/6 7/7/7 23/23/23 22/22/22
f 7/7/7 8/8/8 24/24/24 23/23/23
f 8/8/8 9/9/9 25/25/25 24/24/24
f 9/9/9 10/10/10 26/26/26 25/25/25
f 10/10/10 11/11/11 27/27/27 26/26/26
f 11/11/11 12/12/12 28/28/28 27/27/27
f 12/12/12 13/13/13 29/29/29 28/28/28
f 13/13/13 14/14/14 30/30/30 29/29/29
f 14/14/14 15/15/15 31/31/31 30/30/30
f 15/15/15 16/16/16 32/32/32 31/31/31
f 16/16/16 1/1/1 17/17/17 32/32/32